<mxfile host="65bd71144e">
    <diagram id="OEOeU6F8HBBzAwcQUU8t" name="Page-1">
        <mxGraphModel dx="857" dy="570" grid="1" gridSize="10" guides="1" tooltips="1" connect="1" arrows="1" fold="1" page="1" pageScale="1" pageWidth="850" pageHeight="1100" math="0" shadow="0">
            <root>
                <mxCell id="0"/>
                <mxCell id="1" parent="0"/>
                <mxCell id="2" value="" style="rounded=0;whiteSpace=wrap;html=1;" vertex="1" parent="1">
                    <mxGeometry x="20" y="90" width="160" height="440" as="geometry"/>
                </mxCell>
                <mxCell id="3" value="&lt;font style=&quot;font-size: 14px;&quot;&gt;ECStack(调用栈)&lt;/font&gt;" style="text;strokeColor=none;fillColor=none;html=1;fontSize=24;fontStyle=1;verticalAlign=middle;align=center;" vertex="1" parent="1">
                    <mxGeometry x="40" y="50" width="100" height="40" as="geometry"/>
                </mxCell>
                <mxCell id="4" value="window&lt;br&gt;message:undefined&lt;br&gt;foo: 0xa00&lt;br&gt;bar:0xb00" style="rounded=0;whiteSpace=wrap;html=1;fontSize=14;" vertex="1" parent="1">
                    <mxGeometry x="570" y="140" width="120" height="60" as="geometry"/>
                </mxCell>
                <mxCell id="5" value="&lt;font style=&quot;font-size: 16px;&quot;&gt;GlobalObject&lt;/font&gt;" style="text;strokeColor=none;fillColor=none;html=1;fontSize=24;fontStyle=1;verticalAlign=middle;align=center;" vertex="1" parent="1">
                    <mxGeometry x="570" y="100" width="100" height="40" as="geometry"/>
                </mxCell>
                <mxCell id="6" value="[parent scope] : GO&lt;br&gt;函数体: 代码块" style="rounded=0;whiteSpace=wrap;html=1;fontSize=14;" vertex="1" parent="1">
                    <mxGeometry x="540" y="290" width="120" height="60" as="geometry"/>
                </mxCell>
                <mxCell id="7" value="&lt;font style=&quot;font-size: 16px;&quot;&gt;foo函数 0xa00&lt;/font&gt;" style="text;strokeColor=none;fillColor=none;html=1;fontSize=24;fontStyle=1;verticalAlign=middle;align=center;" vertex="1" parent="1">
                    <mxGeometry x="540" y="250" width="100" height="40" as="geometry"/>
                </mxCell>
                <mxCell id="8" value="[parent scope] : GO&lt;br&gt;函数体: 代码块" style="rounded=0;whiteSpace=wrap;html=1;fontSize=14;" vertex="1" parent="1">
                    <mxGeometry x="365" y="300" width="120" height="60" as="geometry"/>
                </mxCell>
                <mxCell id="9" value="&lt;font style=&quot;font-size: 16px;&quot;&gt;bar函数 0xb00&lt;/font&gt;" style="text;strokeColor=none;fillColor=none;html=1;fontSize=24;fontStyle=1;verticalAlign=middle;align=center;" vertex="1" parent="1">
                    <mxGeometry x="365" y="260" width="100" height="40" as="geometry"/>
                </mxCell>
                <mxCell id="10" value="" style="rounded=0;whiteSpace=wrap;html=1;fontSize=16;" vertex="1" parent="1">
                    <mxGeometry x="40" y="440" width="120" height="90" as="geometry"/>
                </mxCell>
                <mxCell id="11" value="VO对象:GO" style="rounded=0;whiteSpace=wrap;html=1;fontSize=16;" vertex="1" parent="1">
                    <mxGeometry x="40" y="440" width="120" height="40" as="geometry"/>
                </mxCell>
                <mxCell id="12" value="执行代码:&lt;br&gt;bar()" style="rounded=0;whiteSpace=wrap;html=1;fontSize=16;" vertex="1" parent="1">
                    <mxGeometry x="40" y="480" width="120" height="40" as="geometry"/>
                </mxCell>
                <mxCell id="13" value="&lt;font style=&quot;font-size: 15px;&quot;&gt;1. 执行代码: GloabalObject: message进行赋值: message&lt;br&gt;2. 开始执行 bar 函数,创建函数执行上下文(FEC),推入栈中&lt;br&gt;3. 对bar函数AO 中 message 进行赋值: Hello bar, 接着执行 函数 foo()&lt;br&gt;4. 创建foo函数执行上下文(FEC),推入栈中, VO 对象 指向 AO,执行代码 console.log(message)&lt;br&gt;5. 先在foo函数的AO中查找,如没有,向上parentScope 中查找 message: Hello Global&lt;br&gt;&lt;br&gt;parentScope 在编译阶段已经确定了,和定义位置有关系,和调用位置是没有关系的&lt;br&gt;&lt;/font&gt;" style="text;strokeColor=none;fillColor=none;html=1;fontSize=24;fontStyle=1;verticalAlign=middle;align=left;" vertex="1" parent="1">
                    <mxGeometry x="350" y="400" width="400" height="120" as="geometry"/>
                </mxCell>
                <mxCell id="14" value="message:undefined" style="rounded=0;whiteSpace=wrap;html=1;fontSize=14;" vertex="1" parent="1">
                    <mxGeometry x="420" y="140" width="120" height="60" as="geometry"/>
                </mxCell>
                <mxCell id="15" value="&lt;font style=&quot;font-size: 16px;&quot;&gt;Activation Object&lt;/font&gt;" style="text;strokeColor=none;fillColor=none;html=1;fontSize=24;fontStyle=1;verticalAlign=middle;align=center;" vertex="1" parent="1">
                    <mxGeometry x="420" y="100" width="100" height="40" as="geometry"/>
                </mxCell>
                <mxCell id="16" value="" style="rounded=0;whiteSpace=wrap;html=1;fontSize=16;" vertex="1" parent="1">
                    <mxGeometry x="40" y="320" width="120" height="90" as="geometry"/>
                </mxCell>
                <mxCell id="17" value="VO:AO" style="rounded=0;whiteSpace=wrap;html=1;fontSize=16;" vertex="1" parent="1">
                    <mxGeometry x="40" y="320" width="120" height="40" as="geometry"/>
                </mxCell>
                <mxCell id="18" value="执行代码:&lt;br&gt;foo()" style="rounded=0;whiteSpace=wrap;html=1;fontSize=16;" vertex="1" parent="1">
                    <mxGeometry x="40" y="360" width="120" height="40" as="geometry"/>
                </mxCell>
                <mxCell id="19" value="&lt;font style=&quot;font-size: 13px;&quot;&gt;函数执行上下文(FEC)(bar)&lt;/font&gt;" style="text;strokeColor=none;fillColor=none;html=1;fontSize=24;fontStyle=1;verticalAlign=middle;align=center;" vertex="1" parent="1">
                    <mxGeometry x="50" y="280" width="100" height="40" as="geometry"/>
                </mxCell>
                <mxCell id="20" value="" style="rounded=0;whiteSpace=wrap;html=1;fontSize=16;" vertex="1" parent="1">
                    <mxGeometry x="40" y="180" width="120" height="100" as="geometry"/>
                </mxCell>
                <mxCell id="21" value="&lt;font style=&quot;font-size: 12px;&quot;&gt;VO:AO&amp;nbsp;&lt;br&gt;scopechain: VO+parentScope&lt;br&gt;&lt;/font&gt;" style="rounded=0;whiteSpace=wrap;html=1;fontSize=16;align=left;" vertex="1" parent="1">
                    <mxGeometry x="40" y="180" width="120" height="50" as="geometry"/>
                </mxCell>
                <mxCell id="22" value="执行代码:&lt;br&gt;console.log(message)" style="rounded=0;whiteSpace=wrap;html=1;fontSize=16;" vertex="1" parent="1">
                    <mxGeometry x="40" y="240" width="120" height="40" as="geometry"/>
                </mxCell>
                <mxCell id="23" value="&lt;font style=&quot;font-size: 13px;&quot;&gt;函数执行上下文(FEC)(foo)&lt;/font&gt;" style="text;strokeColor=none;fillColor=none;html=1;fontSize=24;fontStyle=1;verticalAlign=middle;align=center;" vertex="1" parent="1">
                    <mxGeometry x="50" y="140" width="100" height="40" as="geometry"/>
                </mxCell>
                <mxCell id="24" value="{}" style="rounded=0;whiteSpace=wrap;html=1;fontSize=14;" vertex="1" parent="1">
                    <mxGeometry x="245" y="140" width="120" height="60" as="geometry"/>
                </mxCell>
                <mxCell id="25" value="&lt;font style=&quot;font-size: 16px;&quot;&gt;Activation Object&lt;/font&gt;" style="text;strokeColor=none;fillColor=none;html=1;fontSize=24;fontStyle=1;verticalAlign=middle;align=center;" vertex="1" parent="1">
                    <mxGeometry x="245" y="100" width="100" height="40" as="geometry"/>
                </mxCell>
                <mxCell id="26" value="" style="shape=image;verticalLabelPosition=bottom;labelBackgroundColor=default;verticalAlign=top;aspect=fixed;imageAspect=0;image=data:image/png,iVBORw0KGgoAAAANSUhEUgAAARUAAADVCAYAAAB5cWTiAAAAAXNSR0IArs4c6QAAAARnQU1BAACxjwv8YQUAAAAJcEhZcwAADsMAAA7DAcdvqGQAACtgSURBVHhe7Z0NdFTVuff/91oLzOQDJplADJOYEEmQmJBCCQnIdwp2xaW9MS+WcovEtUDe2rWsfRHlyi0t1orca11Lu9CsBWiX2nJjXrWyKjQgH4UQEG4+AEMgJCZDGsiQCZCZAKL3ffc+Z58zZz7yNXOSmUme31obzt77fM1kzv88z7P3ec4/pWfM+H8gCILQiX8W/xMEQegCiQpBELpCokIQhK5QTIUYUsxr8/CTTCfK19YAG/KRP64B769rgk30B8JUvj+LvHy9tgI7tznlikQcCrdlQe52ouadChw4LlUGn5xkrHoiFdFSpV367Gel5f7AzzsVdn/Pt49jD8bfI2BLJSbjEcxekA+LQTQQhF8YsWBrPlatNYo6x1dbz5x9uRyvry1HuVU0uNGOMtb3Ort4fHbrABe1Z7YpJQtTRTuON2EnP/Y7DbgumoaMIBw7AFFJQvqCR2DuakK3aCGIvrDZmPXguMEucXaZd7JlVvSwUoKLLH7SXV4SLl7akL4hTvSHLoPx9/Db/YnJyIehsZypfiayc8bj6nG2PNTqMuEV7JgB7N39PHaJJu+2FdhU8DASpWVG26coPvWevBzxPP4wfywO7z6DKco6jiqUHHwFldIKPZNS9O8oQgM6s7OZSd2MfXuBxUuSAOsebNy2X15p3tPYzNskulC74zcobRBVBt/HquxIUWOb7l2HkkOiglQUvbAGmWo3O8aGN6F2u+3bc1vWvXYrFgtXQMFR9Ta2SCfgsW/tOQcNfmHm4d5Grdvi3Sab64rl4tuV4BbDzE5P90ehZ3dC6z4NyEV6LAvPLELfbo3kikThhNd6WteM4dC6IOJ897fh3kXCjXHrZ0jHdwmYdX85yj4UFYUej60/flsqHWeCICKeXD6DFiRjygRRZ8yKZF9u2xlVZJZNz0Dd7mUolsqnaIl/GJs064Ntv6RgIa4fFP0R2Vjq1t8zEdmp6NzxNmq7krA4z46dO6rgsEzBPN6Zuhzrl5iYkKzDxg2s7LUjs/hpuY/D+ouy7UwoRD8rWlFIKVqOzGvsYlf7NYKCRVh9f52rb28zLEs0+2aCs9jCRYj38/NjbUw4ZEHhgsMERd036x+7FOuLUqW+kIZdPLL/L1sD79cakb81GWbRHQhcrLSWxvu1QNYTGhemF6ZOZr85a5ufFysXzixE1VYIC6cCNUz0f+Jm5RiRtYgLgqu/QHUJmehMbhPbsrK/HZZF/TvvwSLMR3/ew556JxITVoj6HOQmAKfrhSXC2HVKY8Ww9eva2A8oco6oy7ScLMbvHXzJd3+PWI+qloe14gM0yosSKUxwUPWByzI5tEcSnzT1yud41j1QBMqL/SjRWhaH6pjFaEKc0IV593OLqU6IUANONTBVGTseKVJ9EdK44KjbN6C0ohkRqTNFf+989/HfIvPV17xKwgKxQoBEZ+Zp4hJ5yIoQHQx+8Vr3u+60tm0NsEbEIyNHNPhNHOYy68d63HX3t22rQY0jDumPiYb+wq0G5fz74/48lso+YztOqFaVEwc+bMB1S7xGGLjVpHxuJ840OhGdEifEtB1lL3PnRfBhG/stGBEX8HfiP2E/pFzZdh434zOwjFci5jANP49jkkAIuDtUsEstS+JFu0oT6i6LRcauU8vwswtHRM1/LLGRzJJZg80vbxVF68owGj7AFsnCEP0vLHe7qBtLf4N9VmYBie09LQnu3rj2vdRlOjOsV5mIqIKUiumpkcxiPiGLXup4jGNipuxXKho3qi++/vO/ofa5Z71K6wGxQoDwURv1rsvvyurfkl0o49jHWqQIDi8alyFgnLDrEcH9sEY69/drfblePSBiGv1FioNo8AwQ6/ed+EfYiwocR9DgkF2gWfGTgdYjrngIj5nMSGaWiOL+LMNeZokMFTyG4XJf5KJ1cXDoTbV937VsrPIQlkPblO32oJMJlCIsPBbjcm/kfu310NhuZ/8qwsHEDFUo1QZzpPiMsq0ov3O3tHpisC2VvuDxApfoyMKjz9CwESa3q5HVNVZSb0gBTjfLYoBERDFbSYMlSgwB+8ZsZq6PCKhKbpuFx5aU72PwRrf6S/iLCo7gWKuTuSwrmOvTjsNeVoYT15W7HbNavC2VweHQl8ylyF6O/oYqJOuiR5rR6dndZVd/PPPWai2VVBTlJUmBW5+CwS0WHgNau0g0DIzBtlR6Rjb7Byde0I5z7Mu05LjiM+a1qbA4GnDYM+DpA8kNY7KQ789oj+SuxGGmGiMxYkFOHLPYGnqI0QhX7bzGttFYOlM3BN9S8Xv0x5CUj+wUz8kp3WgJxiiQMsKjHdkRLJuucXkcVTjdlY3UG2/ILo46+qONu/QPaeQm9ig2bmuWRlLGVTArpHU51hebUKkEVT1GaLQjOJ4jP+6jO54jPwy3EZpFWK1xeRxVVcyS4UFjMbrkdVxGVxV2quLivX/XyFCw8Gf0h6GOhHiMoAjUSXAeIyQy7iM87qM/A52kJp+rNgYEK3OFXm73PmcJ7f49zl1sJ+P9udxHd9z7uRjdyIxXR7f6Prb+0IzaYYcsGJLIqa6W3JbSEGzhIEYCw8D9IdxJwjithcPhIzusrbOdBIUYfMhSGY74cH88J8cRxGBBokIQhK6Q+0MQhK6QqBAEoSskKgRB6AqJCkEQukKiQhCErpCoEAShKwEMKUfDkjMficpMfVs1jp5pFhWCIEYqflsqhqSZiL18EEcPfMJKNTrM05Cd1NuzlQRBjAT8FpXu5nJUNSupdJthszGhiRwr6gRBjFQopkIQhK7oIyrmPKSbu9HSSDEVghjpBC4qhkxkZ5hDIxE2QRBBJzBR4YKSkww0HsQ59X0BBEGMZPwXFY2guAK2BEGMdPyep8Jfd5ru9cKVYKWTJAgiVKB8KgRB6AoNKRMEoSskKgRB6AqJCkEQukKiQhCErpCoEAShKyQqBEHoCokKQRC6QqJCEISuDJ/JbxNewY4ZyaLixOmDxfi9Q1SDyKz7dmB1mhEtJ5dh02XROGQ8i7TND8Ekat3VJagpKxU1PbiDndtrYD48AwXviiY4sLu0C9VF8XhRtPjDS1tPovBetvBVOqas0771nAh1/BcVcx5mZ2jm6Qc1neQKbCp4GBjyC3cOfjH/54g+1/NxgykqpjXlSMNnOPb2a6JFX6QLH94X/ar1F/Hc5HF49UkTdoq2AbGyDXUFQFmAwkQEB//dH1uFSCXJy0G0GIOYTjJiIsxoQt2QWwJ9U3mhGMW7g2GlFMEwFrDXDY6g8Au/8N4ElPmwInZumYQyeyPWrr8jWgbGqgndzEKJJEEJU3Rzf/gDholdQXpiWXJ9gL27n8cu0STDLZiFuK5xhZZN34W5N97Azy4ckbdLOIOSGwsla4Jzs170Kbi5Va5+vp8l8aJRg2t72XpKlFp9u2Pu+9Cuwy2gYmZ5fY7o+co+mnx8vt6QXR+U56P+sGhScXeL4KhCzZbnoD4HOulVZD2RDSWnOS55Wju+3B4P5tpx4ue38Tc/rA3J0okdT25PmKJToDYJZnM3rtqGVlC4a7GjYJe46JOxhC/zMn2FvEJ/iH8Yq6M+l6yJ4pNNGJNWgGWiSxaUOHaxsz7ez4oiOLtO8fobOM1EgLs2nv3Ae9gktX2KFtGihZ/7ksgqlIjtSuqBB+a/4jo2jKzOBVE5TjLm3jdH9PUCF4TN5cgVomHK58u8bBciUoSJ6x/C6OoSHNuYz0oJrMhG1ppnpV5JcJig3GJiJPd/BvvEh5BVWCT6GXO7MDUqAdU9CQrncCTO3mjFtJWiTowYAhIVQ1I+Zi94hJVpiLGdH/KUB4prwcVAvpPLF2jxqffkFfoDu0uXKOtfPsMEIA73SDdIZi2kJzPLY8cgBHxXYCmPs5x7BZWipfLCDkk4pkwQDYyWk4rlcgTHWp0YE8Ujl31w8TnUKGLAqnZVHJ6U6pi7FJaIFljVgG0pLn1Yhe6JUyXRMRQ+CBP7TqyqdfMa6stbYEj9vstySb6NyBujcFFUfXM3WtkB4yYM3AWaFNuJrqujRI0INwISFZ5RX4mrVHVNxuycTNcPL+y5F9FMXGxdGldIV5y4rrtY9RNHB26JRZ9cu+xyhXwgxTz6wcWr4xAZe1vU+oa7PXWlJzHtzAzM3HK3aCXCDd3mqXTbrqDbEIExoh7+fDXIF71REi0XsogNCRExGC0WJRJi3G8GYye41Q1mNfoisfNy/24dA7U4eIB3StEMVGecxAk/g7xE8NFNVGJSkmGwtaJD1EMH18UrxTF8BFd9I7sciTO0cQ5PjuAfXUBiwgBiOBLvoa6NbZf+PGaJlln3LUQiczv2DPYo0eGzzA1KhEWNkRRhYm4iuqv3SO5Rd/UFdEdkwzJX7uUxFsu0CNiPaQK5TaPQFXUbk0TVN3eQwLSo/fLALY6BWjhEaOG3qLjiKXJJRyi+9vQ9bDrZxIRBDuDygOxedjH3Fx6zKamPcwWAWfmDR7B016lP0RL/sHc/D/JKbXz0hgdd+fIO/EIIHA/07u3Kxmqx3eq0duw96IqxDB6voX7jZ7g1bbUI4K6G5dpnrklxPCbzThVGqwFeOajrNoIkgrA/6M2a6E8wlxiWUDpJwj/6mKDGJ8b94GqWX7ERGlIOb3Rzf4gRxrvxKPuqFYVbvQNPXBQKTSnY5mewVYrZmL7GKlEnwgsSFcJvXlyXhUrTOex2m4viQOEMA8r8naLP4YJlb8RzpSdR50O0iNCG3B+CIHSFLBWCIHQlrEUlJjZWLBEEESqQpUIQhK6QqBAEoSskKgRB6EpYj/7wmErH1auiRqikLsf64mzIU8easW/DmzgkLeuBNheLA9Z3foRLvT+u7Cd5+FXuUxh38ad4pl00DVsex+uLp6J230bsEC3hjA6WSjQsOXyqfj4s/XvOjBhsGj7Alg3rsHFHFbvs9YZP83elVhgsijOfwnTnX0eAoHD+jI8umvFo7i8xT7SEMwGLiiFpJhKdthB8kJAIW+I249G4Znxc+2fRMPw51PQUPnZm4ankPNESvgTm/hgykZ0zHlePn4cxZzKcx8uHNFFTKLg/KUX/jlXZkaIGWPeuQ4nwNfrqK8IHqIxdg8UWuU3bz3wYFL2wBpnq5u5uTG/7VpHcIBMqvdwfj31b92Djtv2i0l+4G/QgnF7uzwBTVUq0MOtHJJHq0e1ZhNUvT0FnlQmZ7HM7qvagMXUp+wxdqN3xG5Q2KOsshfg62TpvY4vcITPvaWxekiQq3v29f6ce31lXFXb+7gM0iqq7y6ng+pu577sHl9T4S/wpdyzKw9wNuis27p5NYnmAMLfne+zHYT2K+qujEZscgzutjbgxhGkwDAYDbnYPoYp5IP9Q7OwH8lvs3F+OA6ycUh7UZj/gZ+fcdPV9k4ZHlyxFbPMhfMmunnFT5yEnOw9xjW9j8xu70GzKxbysBDQfOY1OtnlK0dNY+s8HsHHL29J+D+w/wX6Kgj72rWJ6AHOyx+CSdlvGvLUvIPcWExJp302IzX8cD8c34ajbxn2Ri9iFSbhTvQs3+AlL8FSVjyPqyxKc/MPzuHTgFjCnAJMzzLh06pjcv7oABqX/2/mwTLoL1neW44qyD+P/wlMpt3Hs9AFUiSaZFExfNAOTv2HfSeXdWDpnBr4+uA5fjCrAA9H83E3son8c93wpf58H9v8Ppq54HNO/Uf4mTHDWpKF5x4t4s1T+W7l9XiYKq38IHPb1t2SkFC3HPft/K7Zl39mDBZijfmdMcNYUYJxybPb3WJh6FxO7rfgr7/b4ezWblqLwEdffWuXOPyFj/GLc+/VH2OMUbWGI/+6PeSoS0YT6YCS6DgkWYTG781j3+gqCsh9ZXpJ0N1X7Dr2JfdZIpGSnigYGsxCUO2VjVQMckSb1LithmeLDx+7nvntkEdIs7E6pWiYNKK1oRkTqTHbZBkgfqSox6fuIiXCgo1r0S7ldImBMkKsSxrEwOq/1kKqSWSXl4ryZpbBP+8VL51+FUtXy2I99VV2w3L9I1Dl9fUdJSOshqNFY+qawhjgNONXQhYhYYfXwYzOLif8NJQ7VwcqONU58rnn3J7n9ThpLj8IamYrpXqdSASsTk/HG8HaB/BSVJKRnGNFyurbXtIPDmtTxGMd+5J2tou6Dznb1VzhgGkt/w4QiCYtf3orNrKwvcv8F+r1v6bxd+5WKxiUImN5SVV68zPoiEDNNJIiay8WmBTZNrpZ5Rs27pAZCggkRkdlYpflcWleGi0zJDmb7ZK8R/U+7CzYPbu9thmWJ2P6F5e4iy92bnvbdcIVZHBrBmjeF3RyaUS+pSCrixrL7g7JfqbhcNE8udnXDGCm/PyFc8U9UzAngCQgTpVEfkfhaqWfo+AMNZaQfUu+Mi9MKgfzjGgiHtq3DRj6Ks2EPOtnFoBWWwPbNfXpl36Jo4wOB0GuqSiucDua2Kgmi8hNhL1diKTKHnDax5Ac8zuH5ubSxImVUjJWdVSYmrB7Cwiw+Zbt915hAqcLCXKfibKDqbbV/J7OCXDSjk1UjFMFiIu1pwfL4jLKtXJQ4kDuTIg1wdvl6/0L44J+ouL1IjJdqdDCbpeU4Ww657G+DxX7UM5cjk/na3m6DMI+zl7p+tPN4ULEZlb5+SX0i/2hlAtx3wwk0djFLZa3WLfABD2ryC6Sv9bT0kapSco+YiyJn+5eL1zuJmOvjZC5Q76kqfcBdDmapFHlYdD3R2K6VMm+sV7WiIaNah8xqKdJaKvz7Z59LK2iuAK/897Is8RAwn+TBYgSuOCtEPTzRafIbc4cWjMzRn3lrt6qjNxzPER6XmawdpRB9sUddd1K3kRqPkQaOxwhNn/t2M/052hEH7/33OFLiOTI0d7tkYbijnQTnMfrj9iIyHshdDYtHQjf+GhGXuMijP+mX38KPm7QXFx/ZmY1O/jkT2Lnl2aXRFwv7/mddVc7dffSHo/49lM+j0td35j5C497fjFo+CqX+/Xz8vRg9/xYYnqNHnGEy+kMzaomhgwtSbof7ELMkUtAMKTPiNuMvmcDH4XJxccESIqeKhCRicBOmvijO/CPyuzzFNPwIePIbQfQXz1d9cExTmNXjGdxt34iP25PwaObjoiG0SYnz/lx8xAdddlhFvS/mJb+FR401eCvMBYVDlgoxhPhwfzwnx6mE07M/PtwfX+5NjwyvZ39IVAiC0BVyfwiC0JWwFhWyUggi9CBLhSAIXSFRIQhCV0hUCILQlbAXFf6KzTr+JrvtdnpNJkGEAP4PKUsJmpLdk+3YqoP27E8gLwQnCEI/AhOVB4D64yGS/mBlG+oyIjFlnceDJQRBDCkUUyEIQldIVAiC0JXARMWQjGwpSRMveYgRzUGhaRS67u3CS6JKEERw0O3ZH0NSPrJTnDh3oCJ4r+uYa8eJnzci8qt0iq0QRJDQzf3ptl0JbsCWB2pXAtuKZpCgEEQQ0UlUomF5IBkGW2twXypm/y52ikWCIIKD3+6P7O64Zql0Nx5EVTBf10FDygQREoR1PhU3SFQIIiQYNkPKL2W0ouvqKFEjCCJYhL2oKM/+FN6bgL/RFH2CCDrDx/0hCCIkGDbuD0EQoQGJCkEQukKiQhCErpCoEAShKyQqBEHoyvARlQmvYEfBLlF24BchMgdu1n07pHPaNEE0DAGGwo+Qu+ZZURtM7mDn9pPYvVJUJRzYXdoW8NPiPJOflCZ0q0O0EOFCwKISk6GkPmAlQ/tW/aFkBTbNSEbLyWUo3s1LMX4/JL/FOfjF/KEVjFDipa01mGVPR8G7okEiAmUnu1EYSM7glW3SvKMyejg0LAlAVKJhyXkE6ajG0QOfyCVI+WkRMRFmNKHusqiHEJUXiiWh2xSC5xYQyoXv46LfuWUSyuyNWLv+jmgZGKsmdANfReJFUSfCC/8nv5nzMHt8a/CERAt3fWYAe3c/j12iSYZZMAULcf2gy3JZNn0X5t54Az+7cETeLuEMSm4sxOo0o9R/s170KUj7ThYVVz/fz5J40ajBtT0/9sNIlFqdOK05BwX3fWjX4RZQMXDyc0TPV/bR5OPz+Ya7P1mxf0c9HkLaRLnNXp6P+sPysteL0t1eki73GY/lwzalXGzvgPWdH+HSRWkFBnd7amA+PMPDStEg5ba5jb8VxQ9YHPgs6edix5OVEqb4banEjDejuysa6WrmN2a1mEXnEKHEK+SLPhlLlJjK9BXyCv0h/mGsjvpcdptONmFMWgGWiS5ZUOLYxa64VctUwdl1itffwGkmAi63y9UPvIdNUtunaBEtWvi5L4msQonYrqQeeGD+K65jw8jqXBCV4yRj7n1zRF8/mPgQLFdLcGxjPo6Vt8CUvx0m0WUoXAp8yNp538YSWJGN+wqLRK+MKb9c3b7+UgQsizUxmrldmBqVgOqeBIVzOBJnb7Rimlu8hRgJ+Ckq0TCwG7shJQI21fWxISYjHxa3d3YMLoprwcVAvpPLF2jxqffkFfoDu0uXKOtfPsMEIA73SDdIZi2kJzPLY8cgxGdWYCmzjFrOvYJK0VJ5YYckHFM08ZmWk4rlcgTHWp0YE3Wv1N4vLn2GmrJSefnwWdiZvWOeK1e7y57UWB2lsDc4YIi1iLpAs729jsni2Amu17Ek30bkjVFQd+GTu9FqB+ImDNwFmhTbSQ+HhjEBBWo7zmhSR9rOoqXbAKPsRQwD7kU0Exdbl8YV0hUnrusuVj1hhVN7rEmvImtzOXJFyZrm7WbY614TS4zDT+KY6h6JmEc/uHh1HCJjb4ta3ygPh047M4Pe3xTG+Ckq19HtBMYYokV9OPLVIF/0Rkm0XMgiNjhYYIxwwNnKl59F2hPZQLVwjVipqR7YB915uX/m6EAtDh7gnVI0A9UZJ3HCzyAvEXz8tlQ6rtiY+zPVlUHfPBWJBhtsNlEPGVwXrxTH8BFc9Y3sciTO0MY5PDmCf3QBiQkDiOFIvIe6NrZd+vOYJVpm3bcQicwV2zMIo0SGwgdhclyAXeOv3LIJ14hZLff5sFR6hb+5IOo2Jomqb+4gwQS0Xx64xTFQC4cILfx3f2wVqGo0ugK1GQhuJn2fvIdNJ5uYMMgBXB6Q3csu5v7CYzYl9XGuADArf/AIlu469Sla4h/27lcn4/HRGx505cuuSXk80Lu3KxurxXar09qx96ArxhIwEx9yuTepFzSjO6/ByiwTHoiV+p+IQccALRUlCPuD3qyJ/gRziWEJ5VMh/IOn7ywAynoYMg7k3dY0pBzeBBSoJUYw78aj7KtWFPqYRs9FodCUgm1+BlulmI3pa/9n5BJBhUSF8JsX12Wh0nTO69mfwhkGlD1p8v91KVyw7I14jp79CUvI/SEIQlfIUiEIQlfCWlTyZospogRBhAxkqRAEoSskKgRB6AqJCkEQunJXbNw9m8Ry2GFJTILVGgL5XIgwwIgFW+fj0e87UPl3Iwq35WFW4hVUn9TnGaOpG/Lxk+WTMKtgEqZ47TdOOt4S1jerYALGXLXiK+k5LB14LAvPrDLgYvk19YFP/fDvO/PTUpGzvqlpJNUytKkPCEIf+EWfj8LHRFXCV1vPnH25HK+vLUe5VTS40Y4y1vf62hr47B5m+Ckq12E9LvKoaPKp8Mf5u/WXS4LQASfaO9kvt9MpLdsdwA0bXyZ6xr/vTLfJbzwBdmLXQVQ1Xxctgw8fUq44quZIHFL4E8+rE86jRPMQoFebRypKniFOzVXL+9KvoeQk8K/zszGGt7V92meCqdFjDJg3bwGcTgcSLBbY2uXHws1xZtRUV+Pcl2ek+qxZs5GUIh/79u2vcejzfejstEt1vo+FixYjMipKqnv2jxtnwryFizFq1HeleteNG/h8/z7cuinfMdLvz0DWtGnSMkd7XM9tOd9++z/4ovIYmpubvPqbG5tQWXlUWg4e3CrJAvaXo+xD0eTVxl2BPGQpjyNZa/D6y+2i4oK7QTM7K7Bzm6+Lj+8zFfZ3KnDguGiSkI+lpslyNOD9dU3o1wP/3P3JuYHyxnjkZ8rJjK7Xuh/fvDYPPxF9XBxq1OPLn8l0vBznJucjXzoBbb9/6BOoNWQi0WxDyxAKSrCpbDuPmxGTkat55i0pyoibrUeEyKzApoQzciY6kZ3OK41CRDZWzx+Lw7z/YBVuxi/s16tF7vrOXYiKjsapL76AKSYG3Q6HdHHec0+C1M8v+gkJCfjbZ3/Frg/ew+XWVuTOniOJCWdaVjZu3bot9fHycdl/qYLCyZ7+fWkbpf+vu/+iCgoXhZiYWLWPC0r6lPuldg7f9sb161Jf5dGjkqCcOV0rCQo/Pj8PZd/8/Ph58vMNdaZuYILSyYREcmMqUDMuC6vW6pGRjF/YWYhiQqDuG6n4yYY40d8PIlKRP65B3v6dBiAzCwtyRF9OMuayPcr7Lsf7tUDWY8nQZn61LJKFkPeXW43IWjSAY/tAF1GJ4XfExrMhlvZgkHG8gsNtRqTGK6kQVmBKfBMOa3PUaq0Ot1SVCjzZtUhm7TiCBodn4qaeaWxsxJ2vv8btW7dQX18nWmW4uJyr+1IVCt5/113fwfi48VKdw0VJEQJfmGJjVBHSwvd59O8HRQ240vYPfPvNN4iKkvfH9/uPf8hRyCvtV9DNLKqxrI/Dj//tN9+iuqZKqvN9cYFRxLAvIp5+DZmvepbfIuY+sUKA8IvrmW1K0VgO7O+WbmlHuWqZONmdvB3RKXFuF6dfPJbKrJ92nFAtC7bvDxtw3RKPqaKlT7hlo5wbO6+v2O/o3u8JwTvehDKN1WL77zZcj4hin0gDs7oUy+bsebafccaAPlfgoiJZKd24ahs5VorCrtYmjEmYIydampCBxLYzbtnuebZ8Jc+KnFfFA8d5HFOflzuC3x8M/FUeXAhGjx4luSfLlq+Qyg8e+iFGjR4t1mBWFnM3uDXB23k/d5W0VBz9u/T/Iz/6F6nf05JYuHiJz33fZAL39e1bqkhwERk1ajTamPBwxhiNGGsap+6XF8VF6w+ON59F7XOe5d/QcUGsECBW5uood3S3oGqOEfwyzFcFh5UA7+ZuOG7A25HyFzkO4oJbQprzfiIVnvkarVxIFD5kVk1/Xa8eCFhUuJVisJ2HdSQGaLn1IVygZQnJaGl1WSZyljlNMu4esuoPFtwtUVwUXj7c9YHkgih8vm+vmwuiFRbu6nCXh/dzFybjgUxVWPh63BpRXCv+P7eWOHw77lbx+A4XjFmzZ6ONWSLa4/L4zCcf/V/1vHjh59IfBttS6R1mqaiCI0qAF5+Kp+VgifK68PuPEXHjXAFVyW0Ds2SUc2bu0WDf/gMTFWGltDSO1LkiPC0kd1mY6xPpIxWk4xqUb2bZdB+WyiDAL2z71Q63OEdvKNZFT9y4cR3fMPdGC1+fb8fhMRTFUklKSoaRWSOK4PCiDcJyV+m7zHLhMR1/GGxLpUckl4JZKgOJc/SXD9uYRRSHmWp8hlkWOXG4XtuAs6JlQAh36pwacGZ0OoX4sX2z/sHOLB3A6A+fqzIfic7qoL1QLJijPyoRz+MP89lF4vkSMreXifGXjFXBljbZ9WIzZfRngCkklZEbHlO56XQic1o2jhw+iLS0KTBERKh3fe3oD0cZweFoR344fARJ2Y4LkefojXaExrP/SttlaV+11VWSRcJdI26paOlte4529Cg4+DH6w3CNsniM3gjUfj5C4+UuaUdZPLbvYWTJJ1775hZVjUuQcpKxSuPyWJlYRWVG4YS0jvyZ+OiP63MHTljnUwkJUSFUuKWiiJwSJOZt35vxffz3yS/c3CBi+KLPkDJBMHgg9q7vfEfUZOLj7wG/a3E3ihgZkKVC6Iqn++M5sY4Y/pCoEAShK+T+EAShKyQqBEHoCokKQRC6QqJCEISukKgQBKErJCo6YCj8SH0Zeu7m7eh7cvwAiduMv+T+EvNElTMv+S38KTlP1AgidAhoSJknZkrXzMjuOPMJzunyhFX/CIkh5UmvIuuJ+9Dxzo9w6aJo0xPjL/Gn3Ptw7thT+LXrCXbG43h98Q+B2p/iGf0ecSWIgPHbUjEk5SMd1W7pJGMy8hAj+kcMCTEwOC7APhiCgjz8KjMLuPhHD0Hh/BnPHKvB+MzNKBYtBBEK+C0qYyIN6O66JmoMp2MQsnmHPgZzz86Ou1tUjjSPFyqa1rj6cjd/hImTRIdC3EOYjhq81VQhGjxw/ifK25OQT24QEUL4LSodV2wwpMwX7k80LA/wvCqtIyb7myIIWdMiwNNCZglxyCoskleYu5312VG/MR/HeClvgSnfJRxccNLGVqFG9NdUA5Yn3OMxxROS4Lx8DIdE3Rc7LjfDOCHXLd5CEMHE/0CtrYK5PexKyOCv5piP2MsHg5YCIRjY31bEwAE4NOJQVsp6izAxNxHd1XugPvFy+EnUX4pAzDQuOs/CwsTIfuw51brrLvsAVkcizKo1kweLEbji7MFKUXBeg9M4Fp5GDkEEC/9FxZzHxGQynNKrOqpxk1kts3MyQa/9cXHLxgWmJxxw9vpCqUSeKrRv2E6uwCwJEEGEAn6KCnN3Uszobjwh0kg24xwTlg5DMhIDyZg7zBhtFq6QRBEMY8WiRASMbvmeLTC6Jb1u4Qm7+obtZDxssPZnXYIYAvy3VBiGSM1VYk5ADDPmnfTjZpTC3uCAYdpSV4xk7lJYIlpgldyj12C7BJhyX1UtO0PhgzAxN8qqjpBXSEIx3thHEJa5PkbmAg3K4BNB+EEA81SSkL5gmmYIuRstx8uHNAF2KMxT4QHXrNQLqNniio8oSH08kCvhgNVjLgsP9qZNFBVmmdRvfNIVg+HwSW+ZwMf7NmKHaPKkOPOPyO96Cz/uaYSIIIYYyqcS0uThV7lPIf1yD6IhTYwbi/JeRIcghpqA3B9isKnAr2trgEk/xa+8ArGP4/XcLFypJUEhQgsSlVDH+Z/4ca0N0zM9n/2Zj/EX36Ip+kTIQe4PQRC6QpYKQRC6EtaWynfudr0fmCCI0IAsFYIgdIVEhSAIXSFRIQhCV8JeVFb+nzqc/uAITr9tw0rRRhBE8AgoUDtv7VYsVl5V31WFnb/7AI2iOhRoA7W//t0R5HfMRN5/fFe0EAQRDPy2VFKK/h2LxzIh2bAOG1nZdy0bq9YuEr1Dz6++TEJkzG1RIwgiWPgpKouwODsS1gqXZXKovAoOyxTKQEYQI5wAYipd6NQmGWq4gk6YEJcq6gRBjEj8FJX9qLdGIjPf5e7MW7sUSnglKDSNRlfSNfxaVAmCCA4BBGoXYfXLLiGx7t0DLJmC+g1v9pqoWU+8ZtTOsaHif9cjsjkLD7wQKRoJghhK9Jumn7oc64uA0iEcAXITlX+14vSc0fiPNWa8K5oIghh69JmnwgWlOBWNpUM7pOyFfTQJCkEEGb8tFT6kvCpbcTGasW8I3R4FL0vl/rHk9hBEkBk+TymTqBBESKCP+xMC/Pr+ZnR1jBI1giCCRdiLivLsz78kJaGcpugTRNAZPu4PQRAhwbBxfwiCCA3C2lIhCCL0IEuFIAhdIVEhCEJXSFQIgtAVEhWCIHSlz0CtISkf2SkGdJz5BOdsolGg9MnYcO5ABTpEjSCIkUkvlko0LDmPIA1XfAuFOY8JipMJySc4yso5mxnpOZlQJIYgiJFJj6JiSJoJY+MnqGq+Llq0MMFJMaO78awqOB2NTeg2jEcMqQpBjGh6FJXu5nIvd8fFWBgN3bhqUwQniVkpycxKMcBoFE0EQYxIAgzUyi7S7AXTABFzGWOIFn0EQYxEAhAVAxJz5ksukhxTiYaBWSk3u325SwRBjBT8FJVrcHYzF6nxoMZFkl0ip1NUCYIYkfgpKtfRcbkbhpSZsIjArCFpMmK6r6CDiQ1BECOXnuepmPMwO8MsKi6081Xc5ql0N6HqeC1IUwhiZENPKRMEoSsBjv4QBEG4Q6JCEISukKgQBKErJCoEQegKiQpBELpCokIQhK6QqBAEoSskKgRB6EqYi0oRJq4vR9pcUR1MVrahbrsdq0RVYq4dJzzbCGKE06eo8Kn4sxc8gnTvGfsSMRk89UG++gzQsISLR0E3Kt81Yadokjhswt/sjXhuq0M0EATRi6j0kU6SJ2ZiYmPuahrmz/vcwc6VjcDJRKw6LJo0vLguC5Wmc9i9UjQQxAinR1HpPZ0kt1Amw3ncOxl2cHgWaZvLkSuV7TCJVhltHytrnhXtjEmvIktaX7PO+lfd8+yuvIpZSMG2LXeLBk/uZmKTgEnMmiE3iCB6EZXe00nyp5XLYQ0RE8WU/yCc7+Tj2MZ81F9KRJpGOExrpsLG2nnfsY2fwT7xIY8YDFt/s7I964/IhkXT/1JGK7rOR7q7PZ68G4mLUZ2YOxSxHYIIccI8UCtjL/8RLl0Uy3UtwMSpqrVif/tJ2MUy8Bpsl4DR5iJRl3Ft79l/BwlsR+2Xe7JSFEbBdqMT5mRRJYgRzLAQFTdaO9xjPHO3u1wfVtIminaVFtg0sRL72/moKSsVtdswR4nFXrkbrUy54ibcEXWCGLkMP1FJiIHB0YFbfJnHTPITmSWiuD/cPZLW6ifcAhGLvdJfi4Yghj/DTFSKMDE3Ed0NX2isFQecrWKRWS3elkpv9NcC4RbNONiaRJUgRjB+p5N0f+WpQjdajg9lAJdPflsNS4SoMrqrSzTuCw/UalweRxWs17IRc1Wswy2ZJ2Jg3aiNu3jAJ70VAGVF8XhRNHnB15k7Cq8+6TGPhSBGIJROsk/uYOf2Gkw9n4WZPoeV5X7z4RkoeFc0EcQIZvjFVHTnbqx6NwWY0YKdPoaMX9pag1n2dBIUghCQqPSHwybM3G3ArJXez/78wJSCV9dp/C+CGOGQ+0MQhK6QpUIQhK6QqBAEoSskKgRB6AqJCkEQukKiQhCEjgD/HzzByNGcl+A6AAAAAElFTkSuQmCC;" vertex="1" parent="1">
                    <mxGeometry x="200.96" y="580" width="208.08" height="160" as="geometry"/>
                </mxCell>
            </root>
        </mxGraphModel>
    </diagram>
</mxfile>